<svg width="22" height="19" viewBox="0 0 22 19" fill="none" xmlns="http://www.w3.org/2000/svg">
<g clip-path="url(#clip0_4_2)">
<path d="M3.06367 3.08571L3.0637 3.08575L3.06857 3.08093C3.82619 2.33181 4.79929 1.95983 5.77086 1.95983C6.74243 1.95983 7.71553 2.33181 8.47314 3.08094L8.47502 3.08277L10.6307 5.19203L10.9822 5.53599L11.332 5.19019L13.4876 3.05872C14.9782 1.58483 17.4247 1.58822 18.8898 3.05637L18.8922 3.05873C19.6105 3.76897 20.0236 4.70858 20.0236 5.72276C20.0236 6.74279 19.6288 7.67797 18.897 8.38201L18.897 8.38197L18.8917 8.38726L10.9799 16.2315L3.07108 8.41147C2.34776 7.67528 1.9371 6.73348 1.9371 5.74496C1.9371 4.72493 2.33187 3.78975 3.06367 3.08571ZM10.6288 17.2906L10.9809 17.6387L11.3324 17.2902L19.5932 9.09996C20.5212 8.20569 21.0236 7.01052 21.0236 5.72276C21.0236 4.42844 20.4942 3.23704 19.5964 2.34881C17.738 0.487741 14.6616 0.491522 12.7844 2.34764L13.136 2.70318L12.7844 2.34764L10.9786 4.13331L9.17625 2.36985C9.17594 2.36953 9.17562 2.36922 9.17531 2.36891C8.2265 1.43124 6.99944 0.959829 5.77086 0.959829C4.54292 0.959829 3.3165 1.43075 2.3679 2.36744C1.43964 3.26175 0.9371 4.45705 0.9371 5.74496C0.9371 7.02006 1.46865 8.20876 2.36063 9.11522L2.3606 9.11526L2.36547 9.12007L10.6288 17.2906ZM19.9475 2.03741L19.9493 2.03914C22.0159 4.06236 22.0185 7.38257 19.9475 9.43032L10.9804 18.2969L2.0393 9.45616C2.03872 9.45557 2.03814 9.45499 2.03756 9.4544C1.05164 8.45834 0.5 7.14159 0.5 5.74496C0.5 4.34306 1.03283 3.02898 2.03565 2.0374L2.03566 2.03741L2.03742 2.03565C4.08643 -0.0106303 7.4528 -0.0131432 9.52676 2.05787L9.52852 2.05961L10.6289 3.14755L10.984 3.49869L11.3355 3.14396L12.4339 2.03567C14.5073 -0.0124692 17.8749 -0.0118892 19.9475 2.03741Z" fill="black" stroke="black"/>
</g>
<defs>
<clipPath id="clip0_4_2">
<rect width="22" height="19" fill="white"/>
</clipPath>
</defs>
</svg>
